<svg xmlns="http://www.w3.org/2000/svg" xmlns:xlink="http://www.w3.org/1999/xlink" width="2000" zoomAndPan="magnify" viewBox="40 535 1460 425" height="2000" preserveAspectRatio="xMidYMid meet" version="1.0"><defs><g/><clipPath id="57185b19b3"><path d="M 0.839844 0.679688 L 649.558594 0.679688 L 649.558594 414.199219 L 0.839844 414.199219 Z M 0.839844 0.679688 " clip-rule="nonzero"/></clipPath><clipPath id="134e4ffc7a"><rect x="0" width="650" y="0" height="415"/></clipPath><clipPath id="5f4968b759"><rect x="0" width="650" y="0" height="415"/></clipPath><clipPath id="cb58957476"><rect x="0" width="751" y="0" height="127"/></clipPath></defs><g transform="matrix(1, 0, 0, 1, 45, 541)"><g clip-path="url(#5f4968b759)"><g clip-path="url(#57185b19b3)"><g transform="matrix(1, 0, 0, 1, -0.000000000000007105, 0.000000000000113687)"><g clip-path="url(#134e4ffc7a)"><g fill="#000000" fill-opacity="1"><g transform="translate(4.012009, 312.307996)"><g><path d="M 6.101562 -112.902344 C 6.101562 -40.683594 62.042969 4.070312 130.53125 4.070312 C 174.945312 4.070312 208.847656 -13.902344 233.9375 -41.703125 L 233.9375 -132.566406 L 123.75 -132.566406 L 123.75 -76.285156 L 167.488281 -76.285156 L 167.488281 -66.453125 C 158.671875 -60.011719 145.109375 -56.28125 130.53125 -56.28125 C 97.644531 -56.28125 75.605469 -81.371094 75.605469 -112.902344 C 75.605469 -144.429688 97.644531 -169.519531 130.53125 -169.519531 C 149.855469 -169.519531 164.773438 -158.671875 172.234375 -144.769531 L 229.871094 -174.265625 C 214.273438 -203.425781 183.082031 -229.871094 130.53125 -229.871094 C 62.042969 -229.871094 6.101562 -185.457031 6.101562 -112.902344 Z M 6.101562 -112.902344 "/></g></g></g><g fill="#000000" fill-opacity="1"><g transform="translate(213.528555, 312.307996)"><g><path d="M 172.570312 0 L 172.570312 -59.671875 L 86.792969 -59.671875 L 86.792969 -226.140625 L 18.308594 -226.140625 L 18.308594 0 Z M 172.570312 0 "/></g></g></g><g fill="#000000" fill-opacity="1"><g transform="translate(358.629516, 312.307996)"><g><path d="M 286.828125 0 L 286.828125 -226.140625 L 192.238281 -226.140625 L 152.570312 -110.867188 L 112.902344 -226.140625 L 18.308594 -226.140625 L 18.308594 0 L 86.792969 0 L 86.792969 -142.738281 L 137.3125 0 L 167.824219 0 L 218.34375 -142.738281 L 218.34375 0 Z M 286.828125 0 "/></g></g></g></g></g></g><path stroke-linecap="butt" transform="matrix(0.395822, 0.348025, -0.348025, 0.395822, 372.938669, 243.027763)" fill="none" stroke-linejoin="miter" d="M 0.00178163 9.500931 L 194.939442 9.502379 " stroke="#ffffff" stroke-width="19" stroke-opacity="1" stroke-miterlimit="4"/><path stroke-linecap="butt" transform="matrix(0, 0.527064, -0.527064, 0, 232.048017, 180.765991)" fill="none" stroke-linejoin="miter" d="M -0.000695232 9.503501 L 203.870344 9.503501 " stroke="#ffffff" stroke-width="19" stroke-opacity="1" stroke-miterlimit="4"/><path stroke-linecap="butt" transform="matrix(0.0000000009199, 0.527064, -0.527064, 0.0000000009199, 232.155477, 99.564084)" fill="none" stroke-linejoin="miter" d="M -0.00300538 1.503036 L 156.857927 1.503036 " stroke="#ffffff" stroke-width="3" stroke-opacity="1" stroke-miterlimit="4"/></g></g><g transform="matrix(1, 0, 0, 1, 742, 686)"><g clip-path="url(#cb58957476)"><g fill="#000000" fill-opacity="1"><g transform="translate(1.559269, 115.949589)"><g><path d="M 53.8125 -80.15625 C 54.8125 -83.5625 56.660156 -86.398438 59.359375 -88.671875 C 62.066406 -90.953125 65.207031 -92.441406 68.78125 -93.140625 C 72.363281 -93.835938 76.023438 -93.617188 79.765625 -92.484375 L 55.015625 -12.421875 C 54.015625 -9.148438 52.175781 -6.378906 49.5 -4.109375 C 48.164062 -2.898438 46.695312 -1.910156 45.09375 -1.140625 C 43.488281 -0.378906 41.75 0 39.875 0 C 38.007812 0 36.273438 -0.378906 34.671875 -1.140625 C 33.066406 -1.910156 31.597656 -2.898438 30.265625 -4.109375 C 27.585938 -6.378906 25.75 -9.148438 24.75 -12.421875 L -0.09375 -92.484375 C 3.644531 -93.617188 7.316406 -93.835938 10.921875 -93.140625 C 14.523438 -92.441406 17.660156 -90.953125 20.328125 -88.671875 C 23.003906 -86.398438 24.878906 -83.5625 25.953125 -80.15625 L 39.875 -29.453125 Z M 53.8125 -80.15625 "/></g></g></g><g fill="#000000" fill-opacity="1"><g transform="translate(116.285775, 115.949589)"><g><path d="M 5.015625 -74.25 C 5.015625 -77.925781 6 -81.28125 7.96875 -84.3125 C 9.9375 -87.351562 12.585938 -89.789062 15.921875 -91.625 C 19.265625 -93.46875 22.941406 -94.390625 26.953125 -94.390625 L 26.953125 -19.734375 C 26.953125 -15.992188 25.96875 -12.601562 24 -9.5625 C 22.03125 -6.53125 19.390625 -4.109375 16.078125 -2.296875 C 12.773438 -0.492188 9.085938 0.40625 5.015625 0.40625 Z M 5.015625 -74.25 "/></g></g></g><g fill="#000000" fill-opacity="1"><g transform="translate(183.320128, 115.949589)"><g><path d="M 63.53125 -73.84375 C 63.53125 -77.65625 64.5 -81.097656 66.4375 -84.171875 C 68.375 -87.242188 70.925781 -89.695312 74.09375 -91.53125 C 77.269531 -93.375 80.726562 -94.296875 84.46875 -94.296875 L 84.46875 -20.140625 C 84.46875 -16.328125 83.515625 -12.867188 81.609375 -9.765625 C 79.710938 -6.660156 77.175781 -4.1875 74 -2.34375 C 70.820312 -0.507812 67.332031 0.40625 63.53125 0.40625 L 63.53125 -6.90625 L 25.453125 -57.921875 L 25.453125 -19.9375 C 25.453125 -16.195312 24.53125 -12.789062 22.6875 -9.71875 C 20.851562 -6.644531 18.398438 -4.1875 15.328125 -2.34375 C 12.253906 -0.507812 8.816406 0.40625 5.015625 0.40625 L 5.015625 -73.84375 C 5.015625 -77.65625 5.945312 -81.097656 7.8125 -84.171875 C 9.6875 -87.242188 12.160156 -89.695312 15.234375 -91.53125 C 18.304688 -93.375 21.710938 -94.296875 25.453125 -94.296875 L 63.53125 -39.375 Z M 63.53125 -73.84375 "/></g></g></g><g fill="#000000" fill-opacity="1"><g transform="translate(307.865622, 115.949589)"><g><path d="M 59.421875 -82.0625 C 61.085938 -85.539062 63.359375 -88.347656 66.234375 -90.484375 C 69.109375 -92.617188 72.347656 -93.867188 75.953125 -94.234375 C 79.554688 -94.609375 83.265625 -93.894531 87.078125 -92.09375 L 47.890625 -10.421875 C 46.222656 -6.941406 43.9375 -4.132812 41.03125 -2 C 38.125 0.132812 34.867188 1.382812 31.265625 1.75 C 27.660156 2.113281 23.953125 1.363281 20.140625 -0.5 L 34.765625 -30.859375 L 5.015625 -92.28125 C 8.816406 -94.09375 12.6875 -94.796875 16.625 -94.390625 C 20.570312 -93.992188 24.164062 -92.707031 27.40625 -90.53125 C 30.644531 -88.363281 33.132812 -85.539062 34.875 -82.0625 L 47.09375 -56.609375 Z M 59.421875 -82.0625 "/></g></g></g><g fill="#000000" fill-opacity="1"><g transform="translate(435.016116, 115.949589)"><g><path d="M 27.15625 -94.1875 L 27.15625 -22.046875 L 65.328125 -22.046875 C 65.328125 -18.035156 64.410156 -14.34375 62.578125 -10.96875 C 60.742188 -7.59375 58.289062 -4.921875 55.21875 -2.953125 C 52.144531 -0.984375 48.769531 0 45.09375 0 L 5.015625 0 C 5.015625 -0.0625 5.03125 -0.109375 5.0625 -0.140625 C 5.09375 -0.179688 5.109375 -0.203125 5.109375 -0.203125 C 5.109375 -0.203125 5.078125 -0.203125 5.015625 -0.203125 L 5.015625 -73.953125 C 5.015625 -77.691406 6.015625 -81.082031 8.015625 -84.125 C 10.015625 -87.164062 12.6875 -89.601562 16.03125 -91.4375 C 19.375 -93.269531 23.082031 -94.1875 27.15625 -94.1875 Z M 27.15625 -94.1875 "/></g></g></g><g fill="#000000" fill-opacity="1"><g transform="translate(540.424597, 115.949589)"><g><path d="M 25.75 -37.28125 L 25.75 -22.25 L 61.421875 -22.25 C 61.421875 -18.164062 60.46875 -14.4375 58.5625 -11.0625 C 56.664062 -7.695312 54.078125 -5.007812 50.796875 -3 C 47.523438 -1 43.820312 0 39.6875 0 L 25.15625 0 C 21.28125 0 17.722656 -0.953125 14.484375 -2.859375 C 11.242188 -4.765625 8.671875 -7.335938 6.765625 -10.578125 C 4.859375 -13.816406 3.90625 -17.375 3.90625 -21.25 L 3.90625 -72.75 C 3.90625 -76.757812 4.890625 -80.398438 6.859375 -83.671875 C 8.828125 -86.941406 11.445312 -89.5625 14.71875 -91.53125 C 18 -93.5 21.644531 -94.484375 25.65625 -94.484375 L 66.234375 -94.484375 C 66.234375 -90.347656 65.394531 -86.59375 63.71875 -83.21875 C 62.050781 -79.84375 59.695312 -77.148438 56.65625 -75.140625 C 53.625 -73.140625 50.035156 -72.140625 45.890625 -72.140625 L 25.75 -72.140625 L 25.75 -57.921875 L 52.3125 -57.921875 L 47.390625 -37.28125 Z M 25.75 -37.28125 "/></g></g></g><g fill="#000000" fill-opacity="1"><g transform="translate(645.532545, 115.949589)"><g><path d="M 60.921875 -46.296875 C 62.660156 -43.953125 64.03125 -41.328125 65.03125 -38.421875 C 66.03125 -35.515625 66.53125 -32.460938 66.53125 -29.265625 L 66.53125 -28.453125 C 66.53125 -24.578125 65.796875 -20.921875 64.328125 -17.484375 C 62.859375 -14.046875 60.820312 -11.003906 58.21875 -8.359375 C 55.613281 -5.722656 52.585938 -3.671875 49.140625 -2.203125 C 45.703125 -0.734375 42.015625 0 38.078125 0 L 5.8125 0 C 5.8125 -4.070312 6.710938 -7.710938 8.515625 -10.921875 C 10.316406 -14.128906 12.753906 -16.679688 15.828125 -18.578125 C 18.898438 -20.484375 22.273438 -21.4375 25.953125 -21.4375 L 38.078125 -21.4375 C 39.953125 -21.4375 41.585938 -22.140625 42.984375 -23.546875 C 44.390625 -24.953125 45.09375 -26.585938 45.09375 -28.453125 L 45.09375 -29.265625 C 45.09375 -31.203125 44.390625 -32.867188 42.984375 -34.265625 C 41.585938 -35.671875 39.953125 -36.375 38.078125 -36.375 L 31.265625 -36.375 C 26.585938 -36.375 22.257812 -37.410156 18.28125 -39.484375 C 14.3125 -41.554688 11.023438 -44.328125 8.421875 -47.796875 C 6.679688 -50.203125 5.3125 -52.835938 4.3125 -55.703125 C 3.3125 -58.578125 2.8125 -61.617188 2.8125 -64.828125 L 2.8125 -65.640625 C 2.8125 -69.578125 3.546875 -73.265625 5.015625 -76.703125 C 6.484375 -80.140625 8.519531 -83.160156 11.125 -85.765625 C 13.726562 -88.378906 16.75 -90.421875 20.1875 -91.890625 C 23.625 -93.359375 27.316406 -94.09375 31.265625 -94.09375 L 61.03125 -94.09375 C 61.03125 -90.082031 60.125 -86.457031 58.3125 -83.21875 C 56.507812 -79.976562 54.085938 -77.40625 51.046875 -75.5 C 48.015625 -73.59375 44.628906 -72.640625 40.890625 -72.640625 L 31.265625 -72.640625 C 29.328125 -72.640625 27.671875 -71.9375 26.296875 -70.53125 C 24.929688 -69.132812 24.25 -67.503906 24.25 -65.640625 L 24.25 -64.828125 C 24.25 -62.890625 24.929688 -61.234375 26.296875 -59.859375 C 27.671875 -58.492188 29.328125 -57.8125 31.265625 -57.8125 L 38.078125 -57.8125 C 42.753906 -57.8125 47.078125 -56.757812 51.046875 -54.65625 C 55.023438 -52.550781 58.316406 -49.765625 60.921875 -46.296875 Z M 60.921875 -46.296875 "/></g></g></g></g></g><g fill="#000000" fill-opacity="1"><g transform="translate(98.358596, 907.45255)"><g><path d="M 0.953125 -9.324219 C 0.953125 -3.445312 5.429688 0.363281 10.890625 0.363281 C 14.277344 0.363281 16.9375 -1.035156 18.84375 -3.164062 L 18.84375 -10.304688 L 9.9375 -10.304688 L 9.9375 -6.886719 L 14.921875 -6.886719 L 14.921875 -4.621094 C 14.109375 -3.890625 12.597656 -3.191406 10.890625 -3.191406 C 7.503906 -3.191406 5.039062 -5.796875 5.039062 -9.324219 C 5.039062 -12.851562 7.503906 -15.453125 10.890625 -15.453125 C 12.851562 -15.453125 14.445312 -14.417969 15.316406 -13.101562 L 18.617188 -14.894531 C 17.191406 -17.105469 14.753906 -18.980469 10.890625 -18.980469 C 5.429688 -18.980469 0.953125 -15.230469 0.953125 -9.324219 Z M 0.953125 -9.324219 "/></g></g></g><g fill="#000000" fill-opacity="1"><g transform="translate(128.259888, 907.45255)"><g><path d="M 13.71875 0 L 13.71875 -3.5 L 5.824219 -3.5 L 5.824219 -18.675781 L 1.847656 -18.675781 L 1.847656 0 Z M 13.71875 0 "/></g></g></g><g fill="#000000" fill-opacity="1"><g transform="translate(152.645929, 907.45255)"><g><path d="M 0.953125 -9.324219 C 0.953125 -3.695312 5.066406 0.335938 10.695312 0.335938 C 16.351562 0.335938 20.464844 -3.695312 20.464844 -9.324219 C 20.464844 -14.949219 16.351562 -18.980469 10.695312 -18.980469 C 5.066406 -18.980469 0.953125 -14.949219 0.953125 -9.324219 Z M 16.378906 -9.324219 C 16.378906 -5.851562 14.140625 -3.191406 10.695312 -3.191406 C 7.25 -3.191406 5.039062 -5.851562 5.039062 -9.324219 C 5.039062 -12.824219 7.25 -15.453125 10.695312 -15.453125 C 14.140625 -15.453125 16.378906 -12.824219 16.378906 -9.324219 Z M 16.378906 -9.324219 "/></g></g></g><g fill="#000000" fill-opacity="1"><g transform="translate(183.807044, 907.45255)"><g><path d="M 11.984375 0 C 15.539062 0 17.414062 -2.238281 17.414062 -5.039062 C 17.414062 -7.390625 15.820312 -9.324219 13.832031 -9.632812 C 15.59375 -9.996094 17.050781 -11.5625 17.050781 -13.914062 C 17.050781 -16.40625 15.230469 -18.675781 11.675781 -18.675781 L 1.847656 -18.675781 L 1.847656 0 Z M 5.824219 -15.285156 L 10.808594 -15.285156 C 12.152344 -15.285156 12.992188 -14.390625 12.992188 -13.242188 C 12.992188 -12.039062 12.152344 -11.171875 10.808594 -11.171875 L 5.824219 -11.171875 Z M 5.824219 -7.785156 L 10.945312 -7.785156 C 12.515625 -7.785156 13.355469 -6.777344 13.355469 -5.597656 C 13.355469 -4.253906 12.457031 -3.386719 10.945312 -3.386719 L 5.824219 -3.386719 Z M 5.824219 -7.785156 "/></g></g></g><g fill="#000000" fill-opacity="1"><g transform="translate(212.11255, 907.45255)"><g><path d="M 19.261719 0 L 12.066406 -18.675781 L 7.082031 -18.675781 L -0.140625 0 L 4.226562 0 L 5.402344 -3.21875 L 13.746094 -3.21875 L 14.921875 0 Z M 12.65625 -6.664062 L 6.46875 -6.664062 L 9.574219 -15.230469 Z M 12.65625 -6.664062 "/></g></g></g><g fill="#000000" fill-opacity="1"><g transform="translate(241.005972, 907.45255)"><g><path d="M 13.71875 0 L 13.71875 -3.5 L 5.824219 -3.5 L 5.824219 -18.675781 L 1.847656 -18.675781 L 1.847656 0 Z M 13.71875 0 "/></g></g></g><g fill="#000000" fill-opacity="1"><g transform="translate(265.392014, 907.45255)"><g/></g></g><g fill="#000000" fill-opacity="1"><g transform="translate(282.303073, 907.45255)"><g><path d="M 13.71875 0 L 13.71875 -3.5 L 5.824219 -3.5 L 5.824219 -18.675781 L 1.847656 -18.675781 L 1.847656 0 Z M 13.71875 0 "/></g></g></g><g fill="#000000" fill-opacity="1"><g transform="translate(306.689114, 907.45255)"><g><path d="M 5.824219 0 L 5.824219 -18.675781 L 1.847656 -18.675781 L 1.847656 0 Z M 5.824219 0 "/></g></g></g><g fill="#000000" fill-opacity="1"><g transform="translate(324.104091, 907.45255)"><g><path d="M 18.5625 0 L 18.5625 -18.675781 L 14.585938 -18.675781 L 14.585938 -6.578125 L 5.933594 -18.675781 L 1.847656 -18.675781 L 1.847656 0 L 5.824219 0 L 5.824219 -12.542969 L 14.726562 0 Z M 18.5625 0 "/></g></g></g><g fill="#000000" fill-opacity="1"><g transform="translate(354.257348, 907.45255)"><g><path d="M 15.0625 0 L 15.0625 -3.445312 L 5.824219 -3.445312 L 5.824219 -7.785156 L 14.867188 -7.785156 L 14.867188 -11.199219 L 5.824219 -11.199219 L 5.824219 -15.257812 L 15.0625 -15.257812 L 15.0625 -18.675781 L 1.847656 -18.675781 L 1.847656 0 Z M 15.0625 0 "/></g></g></g><g fill="#000000" fill-opacity="1"><g transform="translate(380.323164, 907.45255)"><g><path d="M 16.964844 0 L 12.765625 -7.113281 C 14.78125 -7.585938 16.855469 -9.351562 16.855469 -12.65625 C 16.855469 -16.125 14.476562 -18.675781 10.582031 -18.675781 L 1.847656 -18.675781 L 1.847656 0 L 5.824219 0 L 5.824219 -6.691406 L 8.734375 -6.691406 L 12.402344 0 Z M 12.792969 -12.683594 C 12.792969 -11.113281 11.589844 -10.105469 9.996094 -10.105469 L 5.824219 -10.105469 L 5.824219 -15.257812 L 9.996094 -15.257812 C 11.589844 -15.257812 12.792969 -14.25 12.792969 -12.683594 Z M 12.792969 -12.683594 "/></g></g></g><g fill="#000000" fill-opacity="1"><g transform="translate(408.068745, 907.45255)"><g/></g></g><g fill="#000000" fill-opacity="1"><g transform="translate(424.979815, 907.45255)"><g><path d="M 22.089844 0 L 22.089844 -18.675781 L 16.492188 -18.675781 L 11.953125 -7.027344 L 7.417969 -18.675781 L 1.847656 -18.675781 L 1.847656 0 L 5.824219 0 L 5.824219 -13.4375 L 11.085938 0 L 12.824219 0 L 18.085938 -13.4375 L 18.085938 0 Z M 22.089844 0 "/></g></g></g><g fill="#000000" fill-opacity="1"><g transform="translate(458.660575, 907.45255)"><g><path d="M 19.261719 0 L 12.066406 -18.675781 L 7.082031 -18.675781 L -0.140625 0 L 4.226562 0 L 5.402344 -3.21875 L 13.746094 -3.21875 L 14.921875 0 Z M 12.65625 -6.664062 L 6.46875 -6.664062 L 9.574219 -15.230469 Z M 12.65625 -6.664062 "/></g></g></g><g fill="#000000" fill-opacity="1"><g transform="translate(487.553998, 907.45255)"><g><path d="M 10.164062 0 L 10.164062 -15.175781 L 15.59375 -15.175781 L 15.59375 -18.675781 L 0.699219 -18.675781 L 0.699219 -15.175781 L 6.160156 -15.175781 L 6.160156 0 Z M 10.164062 0 "/></g></g></g><g fill="#000000" fill-opacity="1"><g transform="translate(513.591822, 907.45255)"><g><path d="M 15.0625 0 L 15.0625 -3.445312 L 5.824219 -3.445312 L 5.824219 -7.785156 L 14.867188 -7.785156 L 14.867188 -11.199219 L 5.824219 -11.199219 L 5.824219 -15.257812 L 15.0625 -15.257812 L 15.0625 -18.675781 L 1.847656 -18.675781 L 1.847656 0 Z M 15.0625 0 "/></g></g></g><g fill="#000000" fill-opacity="1"><g transform="translate(539.657616, 907.45255)"><g><path d="M 16.964844 0 L 12.765625 -7.113281 C 14.78125 -7.585938 16.855469 -9.351562 16.855469 -12.65625 C 16.855469 -16.125 14.476562 -18.675781 10.582031 -18.675781 L 1.847656 -18.675781 L 1.847656 0 L 5.824219 0 L 5.824219 -6.691406 L 8.734375 -6.691406 L 12.402344 0 Z M 12.792969 -12.683594 C 12.792969 -11.113281 11.589844 -10.105469 9.996094 -10.105469 L 5.824219 -10.105469 L 5.824219 -15.257812 L 9.996094 -15.257812 C 11.589844 -15.257812 12.792969 -14.25 12.792969 -12.683594 Z M 12.792969 -12.683594 "/></g></g></g><g fill="#000000" fill-opacity="1"><g transform="translate(567.403174, 907.45255)"><g><path d="M 5.824219 0 L 5.824219 -18.675781 L 1.847656 -18.675781 L 1.847656 0 Z M 5.824219 0 "/></g></g></g><g fill="#000000" fill-opacity="1"><g transform="translate(584.818196, 907.45255)"><g><path d="M 19.261719 0 L 12.066406 -18.675781 L 7.082031 -18.675781 L -0.140625 0 L 4.226562 0 L 5.402344 -3.21875 L 13.746094 -3.21875 L 14.921875 0 Z M 12.65625 -6.664062 L 6.46875 -6.664062 L 9.574219 -15.230469 Z M 12.65625 -6.664062 "/></g></g></g><g fill="#000000" fill-opacity="1"><g transform="translate(613.711596, 907.45255)"><g><path d="M 13.71875 0 L 13.71875 -3.5 L 5.824219 -3.5 L 5.824219 -18.675781 L 1.847656 -18.675781 L 1.847656 0 Z M 13.71875 0 "/></g></g></g><g fill="#000000" fill-opacity="1"><g transform="translate(638.097626, 907.45255)"><g><path d="M 0.558594 -2.632812 C 2.324219 -0.867188 4.898438 0.335938 8.484375 0.335938 C 13.523438 0.335938 15.957031 -2.238281 15.957031 -5.65625 C 15.957031 -9.800781 12.039062 -10.722656 8.960938 -11.421875 C 6.804688 -11.925781 5.234375 -12.320312 5.234375 -13.578125 C 5.234375 -14.699219 6.1875 -15.484375 7.980469 -15.484375 C 9.800781 -15.484375 11.816406 -14.839844 13.328125 -13.4375 L 15.539062 -16.351562 C 13.691406 -18.058594 11.226562 -18.953125 8.257812 -18.953125 C 3.863281 -18.953125 1.175781 -16.433594 1.175781 -13.328125 C 1.175781 -9.15625 5.09375 -8.316406 8.148438 -7.617188 C 10.304688 -7.113281 11.925781 -6.636719 11.925781 -5.234375 C 11.925781 -4.171875 10.863281 -3.136719 8.679688 -3.136719 C 6.101562 -3.136719 4.058594 -4.285156 2.742188 -5.65625 Z M 0.558594 -2.632812 "/></g></g></g></svg>